<mxfile host="app.diagrams.net" agent="Mozilla/5.0 (Windows NT 10.0; Win64; x64) AppleWebKit/537.36 (KHTML, like Gecko) Chrome/131.0.0.0 Safari/537.36" version="25.0.3">
  <diagram name="Page-1" id="bB0J-3N0r4cD6Peug8yk">
    <mxGraphModel dx="2359" dy="785" grid="1" gridSize="10" guides="1" tooltips="1" connect="1" arrows="1" fold="1" page="1" pageScale="1" pageWidth="850" pageHeight="1100" math="0" shadow="0">
      <root>
        <mxCell id="0" />
        <mxCell id="1" parent="0" />
        <mxCell id="PQ26sHwA6gQb_uwZyulg-90" value="PhoneNumber" style="ellipse;whiteSpace=wrap;html=1;align=center;" vertex="1" parent="1">
          <mxGeometry x="-707" y="820" width="104.71" height="42" as="geometry" />
        </mxCell>
        <mxCell id="PQ26sHwA6gQb_uwZyulg-117" style="edgeStyle=orthogonalEdgeStyle;curved=1;rounded=0;orthogonalLoop=1;jettySize=auto;html=1;exitX=0;exitY=1;exitDx=0;exitDy=0;" edge="1" parent="1" source="PQ26sHwA6gQb_uwZyulg-58" target="PQ26sHwA6gQb_uwZyulg-114">
          <mxGeometry relative="1" as="geometry" />
        </mxCell>
        <mxCell id="PQ26sHwA6gQb_uwZyulg-118" style="edgeStyle=orthogonalEdgeStyle;curved=1;rounded=0;orthogonalLoop=1;jettySize=auto;html=1;exitX=0.75;exitY=1;exitDx=0;exitDy=0;" edge="1" parent="1" source="PQ26sHwA6gQb_uwZyulg-58" target="PQ26sHwA6gQb_uwZyulg-112">
          <mxGeometry relative="1" as="geometry" />
        </mxCell>
        <mxCell id="PQ26sHwA6gQb_uwZyulg-119" style="edgeStyle=orthogonalEdgeStyle;curved=1;rounded=0;orthogonalLoop=1;jettySize=auto;html=1;exitX=0.5;exitY=1;exitDx=0;exitDy=0;" edge="1" parent="1" source="PQ26sHwA6gQb_uwZyulg-58" target="PQ26sHwA6gQb_uwZyulg-113">
          <mxGeometry relative="1" as="geometry" />
        </mxCell>
        <mxCell id="PQ26sHwA6gQb_uwZyulg-120" style="edgeStyle=orthogonalEdgeStyle;curved=1;rounded=0;orthogonalLoop=1;jettySize=auto;html=1;exitX=0.75;exitY=1;exitDx=0;exitDy=0;" edge="1" parent="1" source="PQ26sHwA6gQb_uwZyulg-58">
          <mxGeometry relative="1" as="geometry">
            <mxPoint x="100" y="410" as="targetPoint" />
          </mxGeometry>
        </mxCell>
        <mxCell id="PQ26sHwA6gQb_uwZyulg-121" style="edgeStyle=orthogonalEdgeStyle;curved=1;rounded=0;orthogonalLoop=1;jettySize=auto;html=1;exitX=1;exitY=0.5;exitDx=0;exitDy=0;" edge="1" parent="1" source="PQ26sHwA6gQb_uwZyulg-58" target="PQ26sHwA6gQb_uwZyulg-116">
          <mxGeometry relative="1" as="geometry" />
        </mxCell>
        <mxCell id="PQ26sHwA6gQb_uwZyulg-123" style="edgeStyle=orthogonalEdgeStyle;curved=1;rounded=0;orthogonalLoop=1;jettySize=auto;html=1;exitX=0.75;exitY=1;exitDx=0;exitDy=0;" edge="1" parent="1" source="PQ26sHwA6gQb_uwZyulg-58" target="PQ26sHwA6gQb_uwZyulg-122">
          <mxGeometry relative="1" as="geometry" />
        </mxCell>
        <mxCell id="PQ26sHwA6gQb_uwZyulg-139" style="edgeStyle=orthogonalEdgeStyle;rounded=0;orthogonalLoop=1;jettySize=auto;html=1;entryX=1;entryY=0.5;entryDx=0;entryDy=0;" edge="1" parent="1" source="PQ26sHwA6gQb_uwZyulg-58" target="PQ26sHwA6gQb_uwZyulg-137">
          <mxGeometry relative="1" as="geometry" />
        </mxCell>
        <mxCell id="PQ26sHwA6gQb_uwZyulg-141" value="1" style="edgeLabel;html=1;align=center;verticalAlign=middle;resizable=0;points=[];" vertex="1" connectable="0" parent="PQ26sHwA6gQb_uwZyulg-139">
          <mxGeometry x="-0.6512" y="3" relative="1" as="geometry">
            <mxPoint as="offset" />
          </mxGeometry>
        </mxCell>
        <mxCell id="PQ26sHwA6gQb_uwZyulg-58" value="Customer" style="whiteSpace=wrap;html=1;align=center;" vertex="1" parent="1">
          <mxGeometry x="32.94117647058829" y="365" width="104.70588235294119" height="42" as="geometry" />
        </mxCell>
        <mxCell id="PQ26sHwA6gQb_uwZyulg-59" value="" style="rounded=0;orthogonalLoop=1;jettySize=auto;html=1;edgeStyle=orthogonalEdgeStyle;exitX=0.5;exitY=1;exitDx=0;exitDy=0;" edge="1" parent="1" source="PQ26sHwA6gQb_uwZyulg-127" target="PQ26sHwA6gQb_uwZyulg-69">
          <mxGeometry relative="1" as="geometry">
            <Array as="points">
              <mxPoint x="-110" y="282" />
              <mxPoint x="-110" y="320" />
              <mxPoint x="-255" y="320" />
            </Array>
          </mxGeometry>
        </mxCell>
        <mxCell id="PQ26sHwA6gQb_uwZyulg-61" value="1" style="edgeLabel;html=1;align=center;verticalAlign=middle;resizable=0;points=[];" vertex="1" connectable="0" parent="PQ26sHwA6gQb_uwZyulg-59">
          <mxGeometry x="0.6364" relative="1" as="geometry">
            <mxPoint as="offset" />
          </mxGeometry>
        </mxCell>
        <mxCell id="PQ26sHwA6gQb_uwZyulg-62" style="edgeStyle=orthogonalEdgeStyle;rounded=0;orthogonalLoop=1;jettySize=auto;html=1;entryX=1;entryY=0.5;entryDx=0;entryDy=0;curved=1;" edge="1" parent="1" source="PQ26sHwA6gQb_uwZyulg-66" target="PQ26sHwA6gQb_uwZyulg-79">
          <mxGeometry relative="1" as="geometry" />
        </mxCell>
        <mxCell id="PQ26sHwA6gQb_uwZyulg-63" style="edgeStyle=orthogonalEdgeStyle;rounded=0;orthogonalLoop=1;jettySize=auto;html=1;exitX=0.25;exitY=0;exitDx=0;exitDy=0;entryX=1;entryY=1;entryDx=0;entryDy=0;curved=1;" edge="1" parent="1" source="PQ26sHwA6gQb_uwZyulg-66" target="PQ26sHwA6gQb_uwZyulg-77">
          <mxGeometry relative="1" as="geometry">
            <Array as="points">
              <mxPoint x="-344" y="239" />
              <mxPoint x="-344" y="176" />
              <mxPoint x="-312.58823529411757" y="176" />
              <mxPoint x="-312.58823529411757" y="96.19999999999999" />
            </Array>
          </mxGeometry>
        </mxCell>
        <mxCell id="PQ26sHwA6gQb_uwZyulg-64" style="edgeStyle=orthogonalEdgeStyle;rounded=0;orthogonalLoop=1;jettySize=auto;html=1;exitX=0;exitY=0.25;exitDx=0;exitDy=0;entryX=1;entryY=0.5;entryDx=0;entryDy=0;curved=1;" edge="1" parent="1" source="PQ26sHwA6gQb_uwZyulg-66" target="PQ26sHwA6gQb_uwZyulg-82">
          <mxGeometry relative="1" as="geometry">
            <Array as="points">
              <mxPoint x="-375.4117647058823" y="249.5" />
              <mxPoint x="-375.4117647058823" y="176" />
              <mxPoint x="-396.35294117647055" y="176" />
              <mxPoint x="-396.35294117647055" y="123.5" />
            </Array>
          </mxGeometry>
        </mxCell>
        <mxCell id="PQ26sHwA6gQb_uwZyulg-65" style="rounded=0;orthogonalLoop=1;jettySize=auto;html=1;exitX=0.25;exitY=1;exitDx=0;exitDy=0;entryX=1;entryY=0.5;entryDx=0;entryDy=0;edgeStyle=orthogonalEdgeStyle;curved=1;" edge="1" parent="1" source="PQ26sHwA6gQb_uwZyulg-66" target="PQ26sHwA6gQb_uwZyulg-81">
          <mxGeometry relative="1" as="geometry" />
        </mxCell>
        <mxCell id="PQ26sHwA6gQb_uwZyulg-132" style="edgeStyle=orthogonalEdgeStyle;rounded=0;orthogonalLoop=1;jettySize=auto;html=1;exitX=1;exitY=0.5;exitDx=0;exitDy=0;entryX=0;entryY=0.5;entryDx=0;entryDy=0;" edge="1" parent="1" source="PQ26sHwA6gQb_uwZyulg-66" target="PQ26sHwA6gQb_uwZyulg-127">
          <mxGeometry relative="1" as="geometry" />
        </mxCell>
        <mxCell id="PQ26sHwA6gQb_uwZyulg-134" value="n" style="edgeLabel;html=1;align=center;verticalAlign=middle;resizable=0;points=[];" vertex="1" connectable="0" parent="PQ26sHwA6gQb_uwZyulg-132">
          <mxGeometry x="-0.6445" relative="1" as="geometry">
            <mxPoint as="offset" />
          </mxGeometry>
        </mxCell>
        <mxCell id="PQ26sHwA6gQb_uwZyulg-136" style="edgeStyle=orthogonalEdgeStyle;curved=1;rounded=0;orthogonalLoop=1;jettySize=auto;html=1;exitX=0.5;exitY=0;exitDx=0;exitDy=0;entryX=0.5;entryY=1;entryDx=0;entryDy=0;" edge="1" parent="1" source="PQ26sHwA6gQb_uwZyulg-66" target="PQ26sHwA6gQb_uwZyulg-102">
          <mxGeometry relative="1" as="geometry" />
        </mxCell>
        <mxCell id="PQ26sHwA6gQb_uwZyulg-66" value="Car" style="whiteSpace=wrap;html=1;align=center;" vertex="1" parent="1">
          <mxGeometry x="-344" y="260" width="104.70588235294119" height="42" as="geometry" />
        </mxCell>
        <mxCell id="PQ26sHwA6gQb_uwZyulg-98" style="edgeStyle=orthogonalEdgeStyle;curved=1;rounded=0;orthogonalLoop=1;jettySize=auto;html=1;exitX=0;exitY=0.25;exitDx=0;exitDy=0;entryX=1;entryY=1;entryDx=0;entryDy=0;" edge="1" parent="1" source="PQ26sHwA6gQb_uwZyulg-67" target="PQ26sHwA6gQb_uwZyulg-97">
          <mxGeometry relative="1" as="geometry" />
        </mxCell>
        <mxCell id="PQ26sHwA6gQb_uwZyulg-99" style="edgeStyle=orthogonalEdgeStyle;curved=1;rounded=0;orthogonalLoop=1;jettySize=auto;html=1;exitX=0;exitY=0.5;exitDx=0;exitDy=0;" edge="1" parent="1" source="PQ26sHwA6gQb_uwZyulg-67" target="PQ26sHwA6gQb_uwZyulg-95">
          <mxGeometry relative="1" as="geometry" />
        </mxCell>
        <mxCell id="PQ26sHwA6gQb_uwZyulg-100" style="edgeStyle=orthogonalEdgeStyle;curved=1;rounded=0;orthogonalLoop=1;jettySize=auto;html=1;exitX=0.25;exitY=1;exitDx=0;exitDy=0;" edge="1" parent="1" source="PQ26sHwA6gQb_uwZyulg-67" target="PQ26sHwA6gQb_uwZyulg-94">
          <mxGeometry relative="1" as="geometry" />
        </mxCell>
        <mxCell id="PQ26sHwA6gQb_uwZyulg-101" style="edgeStyle=orthogonalEdgeStyle;curved=1;rounded=0;orthogonalLoop=1;jettySize=auto;html=1;exitX=0.75;exitY=1;exitDx=0;exitDy=0;" edge="1" parent="1" source="PQ26sHwA6gQb_uwZyulg-67" target="PQ26sHwA6gQb_uwZyulg-96">
          <mxGeometry relative="1" as="geometry" />
        </mxCell>
        <mxCell id="PQ26sHwA6gQb_uwZyulg-147" style="edgeStyle=orthogonalEdgeStyle;rounded=0;orthogonalLoop=1;jettySize=auto;html=1;exitX=0.75;exitY=0;exitDx=0;exitDy=0;entryX=0.5;entryY=1;entryDx=0;entryDy=0;" edge="1" parent="1" source="PQ26sHwA6gQb_uwZyulg-67" target="PQ26sHwA6gQb_uwZyulg-146">
          <mxGeometry relative="1" as="geometry" />
        </mxCell>
        <mxCell id="PQ26sHwA6gQb_uwZyulg-149" value="1" style="edgeLabel;html=1;align=center;verticalAlign=middle;resizable=0;points=[];" vertex="1" connectable="0" parent="PQ26sHwA6gQb_uwZyulg-147">
          <mxGeometry x="-0.6533" y="2" relative="1" as="geometry">
            <mxPoint as="offset" />
          </mxGeometry>
        </mxCell>
        <mxCell id="PQ26sHwA6gQb_uwZyulg-67" value="Salesperson" style="whiteSpace=wrap;html=1;align=center;" vertex="1" parent="1">
          <mxGeometry x="-428.88" y="590" width="128.88" height="60" as="geometry" />
        </mxCell>
        <mxCell id="PQ26sHwA6gQb_uwZyulg-68" style="edgeStyle=orthogonalEdgeStyle;rounded=0;orthogonalLoop=1;jettySize=auto;html=1;exitX=0;exitY=0.5;exitDx=0;exitDy=0;curved=1;" edge="1" parent="1" source="PQ26sHwA6gQb_uwZyulg-69" target="PQ26sHwA6gQb_uwZyulg-87">
          <mxGeometry relative="1" as="geometry" />
        </mxCell>
        <mxCell id="PQ26sHwA6gQb_uwZyulg-69" value="Order" style="whiteSpace=wrap;html=1;align=center;" vertex="1" parent="1">
          <mxGeometry x="-302.11764705882354" y="396.5" width="94.23529411764706" height="42" as="geometry" />
        </mxCell>
        <mxCell id="PQ26sHwA6gQb_uwZyulg-108" style="edgeStyle=orthogonalEdgeStyle;curved=1;rounded=0;orthogonalLoop=1;jettySize=auto;html=1;exitX=1;exitY=0.25;exitDx=0;exitDy=0;" edge="1" parent="1" source="PQ26sHwA6gQb_uwZyulg-73" target="PQ26sHwA6gQb_uwZyulg-103">
          <mxGeometry relative="1" as="geometry" />
        </mxCell>
        <mxCell id="PQ26sHwA6gQb_uwZyulg-110" style="edgeStyle=orthogonalEdgeStyle;curved=1;rounded=0;orthogonalLoop=1;jettySize=auto;html=1;exitX=1;exitY=0.75;exitDx=0;exitDy=0;" edge="1" parent="1" source="PQ26sHwA6gQb_uwZyulg-73" target="PQ26sHwA6gQb_uwZyulg-104">
          <mxGeometry relative="1" as="geometry" />
        </mxCell>
        <mxCell id="PQ26sHwA6gQb_uwZyulg-111" style="edgeStyle=orthogonalEdgeStyle;curved=1;rounded=0;orthogonalLoop=1;jettySize=auto;html=1;exitX=0.75;exitY=1;exitDx=0;exitDy=0;" edge="1" parent="1" source="PQ26sHwA6gQb_uwZyulg-73" target="PQ26sHwA6gQb_uwZyulg-106">
          <mxGeometry relative="1" as="geometry" />
        </mxCell>
        <mxCell id="PQ26sHwA6gQb_uwZyulg-73" value="Service" style="whiteSpace=wrap;html=1;align=center;" vertex="1" parent="1">
          <mxGeometry x="85.2941176470589" y="218" width="104.70588235294119" height="42" as="geometry" />
        </mxCell>
        <mxCell id="PQ26sHwA6gQb_uwZyulg-77" value="Model" style="ellipse;whiteSpace=wrap;html=1;align=center;" vertex="1" parent="1">
          <mxGeometry x="-440.00411764705876" y="30" width="104.70588235294119" height="42" as="geometry" />
        </mxCell>
        <mxCell id="PQ26sHwA6gQb_uwZyulg-79" value="Make" style="ellipse;whiteSpace=wrap;html=1;align=center;" vertex="1" parent="1">
          <mxGeometry x="-706.9935294117646" y="92" width="104.70588235294119" height="42" as="geometry" />
        </mxCell>
        <mxCell id="PQ26sHwA6gQb_uwZyulg-81" value="&lt;code&gt;Status&lt;/code&gt;" style="ellipse;whiteSpace=wrap;html=1;align=center;" vertex="1" parent="1">
          <mxGeometry x="-811.7023529411765" y="218" width="104.70588235294119" height="42" as="geometry" />
        </mxCell>
        <mxCell id="PQ26sHwA6gQb_uwZyulg-82" value="Year" style="ellipse;whiteSpace=wrap;html=1;align=center;" vertex="1" parent="1">
          <mxGeometry x="-560.0017647058824" y="30" width="104.70588235294119" height="42" as="geometry" />
        </mxCell>
        <mxCell id="PQ26sHwA6gQb_uwZyulg-83" value="Price" style="ellipse;whiteSpace=wrap;html=1;align=center;" vertex="1" parent="1">
          <mxGeometry x="-770.0029411764706" y="150" width="104.70588235294119" height="42" as="geometry" />
        </mxCell>
        <mxCell id="PQ26sHwA6gQb_uwZyulg-84" style="edgeStyle=orthogonalEdgeStyle;rounded=0;orthogonalLoop=1;jettySize=auto;html=1;exitX=0;exitY=0.75;exitDx=0;exitDy=0;entryX=1;entryY=0.5;entryDx=0;entryDy=0;curved=1;" edge="1" parent="1" source="PQ26sHwA6gQb_uwZyulg-66" target="PQ26sHwA6gQb_uwZyulg-83">
          <mxGeometry relative="1" as="geometry" />
        </mxCell>
        <mxCell id="PQ26sHwA6gQb_uwZyulg-85" value="&lt;code&gt;ID&lt;/code&gt;" style="ellipse;whiteSpace=wrap;html=1;align=center;" vertex="1" parent="1">
          <mxGeometry x="-134.71" y="340" width="74.71" height="32" as="geometry" />
        </mxCell>
        <mxCell id="PQ26sHwA6gQb_uwZyulg-86" value="Amount" style="ellipse;whiteSpace=wrap;html=1;align=center;" vertex="1" parent="1">
          <mxGeometry x="-229.17823529411757" y="489" width="104.70588235294119" height="42" as="geometry" />
        </mxCell>
        <mxCell id="PQ26sHwA6gQb_uwZyulg-87" value="Date" style="ellipse;whiteSpace=wrap;html=1;align=center;" vertex="1" parent="1">
          <mxGeometry x="-476.9982352941176" y="396.5" width="104.70588235294119" height="42" as="geometry" />
        </mxCell>
        <mxCell id="PQ26sHwA6gQb_uwZyulg-88" style="edgeStyle=orthogonalEdgeStyle;rounded=0;orthogonalLoop=1;jettySize=auto;html=1;exitX=1;exitY=0.25;exitDx=0;exitDy=0;entryX=0.35;entryY=0.975;entryDx=0;entryDy=0;entryPerimeter=0;curved=1;" edge="1" parent="1" source="PQ26sHwA6gQb_uwZyulg-69" target="PQ26sHwA6gQb_uwZyulg-85">
          <mxGeometry relative="1" as="geometry" />
        </mxCell>
        <mxCell id="PQ26sHwA6gQb_uwZyulg-89" style="edgeStyle=orthogonalEdgeStyle;rounded=0;orthogonalLoop=1;jettySize=auto;html=1;exitX=0.75;exitY=1;exitDx=0;exitDy=0;entryX=0.4;entryY=0;entryDx=0;entryDy=0;entryPerimeter=0;curved=1;" edge="1" parent="1" source="PQ26sHwA6gQb_uwZyulg-69" target="PQ26sHwA6gQb_uwZyulg-86">
          <mxGeometry relative="1" as="geometry" />
        </mxCell>
        <mxCell id="PQ26sHwA6gQb_uwZyulg-93" style="edgeStyle=orthogonalEdgeStyle;curved=1;rounded=0;orthogonalLoop=1;jettySize=auto;html=1;exitX=0;exitY=0.5;exitDx=0;exitDy=0;entryX=0.697;entryY=0.076;entryDx=0;entryDy=0;entryPerimeter=0;" edge="1" parent="1" source="PQ26sHwA6gQb_uwZyulg-67" target="PQ26sHwA6gQb_uwZyulg-90">
          <mxGeometry relative="1" as="geometry" />
        </mxCell>
        <mxCell id="PQ26sHwA6gQb_uwZyulg-94" value="Email" style="ellipse;whiteSpace=wrap;html=1;align=center;" vertex="1" parent="1">
          <mxGeometry x="-517.29" y="802" width="100" height="40" as="geometry" />
        </mxCell>
        <mxCell id="PQ26sHwA6gQb_uwZyulg-95" value="Name" style="ellipse;whiteSpace=wrap;html=1;align=center;" vertex="1" parent="1">
          <mxGeometry x="-840" y="730" width="100" height="40" as="geometry" />
        </mxCell>
        <mxCell id="PQ26sHwA6gQb_uwZyulg-96" value="CommissionRate" style="ellipse;whiteSpace=wrap;html=1;align=center;" vertex="1" parent="1">
          <mxGeometry x="-312.59000000000003" y="800" width="100" height="40" as="geometry" />
        </mxCell>
        <mxCell id="PQ26sHwA6gQb_uwZyulg-97" value="ID" style="ellipse;whiteSpace=wrap;html=1;align=center;" vertex="1" parent="1">
          <mxGeometry x="-770" y="520" width="100" height="40" as="geometry" />
        </mxCell>
        <mxCell id="PQ26sHwA6gQb_uwZyulg-102" value="ID" style="ellipse;whiteSpace=wrap;html=1;align=center;" vertex="1" parent="1">
          <mxGeometry x="-279.99999999999994" y="130" width="100" height="40" as="geometry" />
        </mxCell>
        <mxCell id="PQ26sHwA6gQb_uwZyulg-103" value="Description" style="ellipse;whiteSpace=wrap;html=1;align=center;" vertex="1" parent="1">
          <mxGeometry x="200" y="62.5" width="100" height="40" as="geometry" />
        </mxCell>
        <mxCell id="PQ26sHwA6gQb_uwZyulg-104" value="ID" style="ellipse;whiteSpace=wrap;html=1;align=center;" vertex="1" parent="1">
          <mxGeometry x="425" y="310" width="100" height="40" as="geometry" />
        </mxCell>
        <mxCell id="PQ26sHwA6gQb_uwZyulg-105" value="Cost" style="ellipse;whiteSpace=wrap;html=1;align=center;" vertex="1" parent="1">
          <mxGeometry x="350" y="102.5" width="100" height="40" as="geometry" />
        </mxCell>
        <mxCell id="PQ26sHwA6gQb_uwZyulg-106" value="Date" style="ellipse;whiteSpace=wrap;html=1;align=center;" vertex="1" parent="1">
          <mxGeometry x="250" y="310" width="100" height="40" as="geometry" />
        </mxCell>
        <mxCell id="PQ26sHwA6gQb_uwZyulg-109" style="edgeStyle=orthogonalEdgeStyle;curved=1;rounded=0;orthogonalLoop=1;jettySize=auto;html=1;exitX=1;exitY=0.75;exitDx=0;exitDy=0;entryX=0.277;entryY=0.874;entryDx=0;entryDy=0;entryPerimeter=0;" edge="1" parent="1" source="PQ26sHwA6gQb_uwZyulg-73" target="PQ26sHwA6gQb_uwZyulg-105">
          <mxGeometry relative="1" as="geometry" />
        </mxCell>
        <mxCell id="PQ26sHwA6gQb_uwZyulg-112" value="Email" style="ellipse;whiteSpace=wrap;html=1;align=center;" vertex="1" parent="1">
          <mxGeometry x="250" y="449" width="100" height="40" as="geometry" />
        </mxCell>
        <mxCell id="PQ26sHwA6gQb_uwZyulg-113" value="Name" style="ellipse;whiteSpace=wrap;html=1;align=center;" vertex="1" parent="1">
          <mxGeometry x="110" y="670" width="100" height="40" as="geometry" />
        </mxCell>
        <mxCell id="PQ26sHwA6gQb_uwZyulg-114" value="ID" style="ellipse;whiteSpace=wrap;html=1;align=center;" vertex="1" parent="1">
          <mxGeometry x="-40" y="480" width="100" height="40" as="geometry" />
        </mxCell>
        <mxCell id="PQ26sHwA6gQb_uwZyulg-116" value="Address" style="ellipse;whiteSpace=wrap;html=1;align=center;" vertex="1" parent="1">
          <mxGeometry x="380" y="470" width="100" height="40" as="geometry" />
        </mxCell>
        <mxCell id="PQ26sHwA6gQb_uwZyulg-122" value="PhoneNumber" style="ellipse;whiteSpace=wrap;html=1;align=center;" vertex="1" parent="1">
          <mxGeometry x="250" y="610" width="100" height="40" as="geometry" />
        </mxCell>
        <mxCell id="PQ26sHwA6gQb_uwZyulg-129" style="edgeStyle=orthogonalEdgeStyle;rounded=0;orthogonalLoop=1;jettySize=auto;html=1;exitX=1;exitY=0.5;exitDx=0;exitDy=0;" edge="1" parent="1" source="PQ26sHwA6gQb_uwZyulg-127" target="PQ26sHwA6gQb_uwZyulg-73">
          <mxGeometry relative="1" as="geometry" />
        </mxCell>
        <mxCell id="PQ26sHwA6gQb_uwZyulg-135" value="m" style="edgeLabel;html=1;align=center;verticalAlign=middle;resizable=0;points=[];" vertex="1" connectable="0" parent="PQ26sHwA6gQb_uwZyulg-129">
          <mxGeometry x="0.4921" y="1" relative="1" as="geometry">
            <mxPoint as="offset" />
          </mxGeometry>
        </mxCell>
        <mxCell id="PQ26sHwA6gQb_uwZyulg-127" value="has" style="shape=rhombus;perimeter=rhombusPerimeter;whiteSpace=wrap;html=1;align=center;" vertex="1" parent="1">
          <mxGeometry x="-162.24" y="230" width="102.24" height="52" as="geometry" />
        </mxCell>
        <mxCell id="PQ26sHwA6gQb_uwZyulg-140" style="edgeStyle=orthogonalEdgeStyle;rounded=0;orthogonalLoop=1;jettySize=auto;html=1;exitX=0;exitY=0.5;exitDx=0;exitDy=0;entryX=1;entryY=0.5;entryDx=0;entryDy=0;" edge="1" parent="1" source="PQ26sHwA6gQb_uwZyulg-137" target="PQ26sHwA6gQb_uwZyulg-69">
          <mxGeometry relative="1" as="geometry" />
        </mxCell>
        <mxCell id="PQ26sHwA6gQb_uwZyulg-142" value="n" style="edgeLabel;html=1;align=center;verticalAlign=middle;resizable=0;points=[];" vertex="1" connectable="0" parent="PQ26sHwA6gQb_uwZyulg-140">
          <mxGeometry x="0.5852" y="-1" relative="1" as="geometry">
            <mxPoint x="-1" as="offset" />
          </mxGeometry>
        </mxCell>
        <mxCell id="PQ26sHwA6gQb_uwZyulg-137" value="has" style="shape=rhombus;perimeter=rhombusPerimeter;whiteSpace=wrap;html=1;align=center;" vertex="1" parent="1">
          <mxGeometry x="-124.47" y="405.5" width="94.59" height="43.5" as="geometry" />
        </mxCell>
        <mxCell id="PQ26sHwA6gQb_uwZyulg-148" style="edgeStyle=orthogonalEdgeStyle;rounded=0;orthogonalLoop=1;jettySize=auto;html=1;exitX=0.5;exitY=0;exitDx=0;exitDy=0;entryX=0.5;entryY=1;entryDx=0;entryDy=0;" edge="1" parent="1" source="PQ26sHwA6gQb_uwZyulg-146" target="PQ26sHwA6gQb_uwZyulg-69">
          <mxGeometry relative="1" as="geometry" />
        </mxCell>
        <mxCell id="PQ26sHwA6gQb_uwZyulg-150" value="n" style="edgeLabel;html=1;align=center;verticalAlign=middle;resizable=0;points=[];" vertex="1" connectable="0" parent="PQ26sHwA6gQb_uwZyulg-148">
          <mxGeometry x="0.6702" y="1" relative="1" as="geometry">
            <mxPoint x="-7" y="3" as="offset" />
          </mxGeometry>
        </mxCell>
        <mxCell id="PQ26sHwA6gQb_uwZyulg-146" value="has" style="shape=rhombus;perimeter=rhombusPerimeter;whiteSpace=wrap;html=1;align=center;" vertex="1" parent="1">
          <mxGeometry x="-380" y="480" width="120" height="60" as="geometry" />
        </mxCell>
      </root>
    </mxGraphModel>
  </diagram>
</mxfile>
